<svg xmlns="http://www.w3.org/2000/svg" xmlns:xlink="http://www.w3.org/1999/xlink" width="610" zoomAndPan="magnify" viewBox="0 0 457.5 239.249991" height="319" preserveAspectRatio="xMidYMid meet" version="1.0"><defs><g/><clipPath id="45108b6801"><path d="M 0.476562 0.292969 L 456.535156 0.292969 L 456.535156 238.503906 L 0.476562 238.503906 Z M 0.476562 0.292969 " clip-rule="nonzero"/></clipPath></defs><g clip-path="url(#45108b6801)"><path stroke-linecap="butt" transform="matrix(0.748473, 0, 0, 0.749428, 0.475301, 0.293966)" fill="none" stroke-linejoin="miter" d="M 0.00168581 -0.00133107 L 609.972546 -0.00133107 L 609.972546 318.595959 L 0.00168581 318.595959 L 0.00168581 -0.00133107 " stroke="#000000" stroke-width="34" stroke-opacity="1" stroke-miterlimit="4"/></g><g fill="#000000" fill-opacity="1"><g transform="translate(33.274127, 118.06527)"><g><path d="M 7.609375 0 L 7.609375 -60.515625 L 20.453125 -60.515625 L 20.453125 -10.59375 L 45 -10.59375 L 45 0 Z M 7.609375 0 "/></g></g></g><g fill="#000000" fill-opacity="1"><g transform="translate(81.170265, 118.06527)"><g><path d="M 7.609375 0 L 7.609375 -60.515625 L 20.453125 -60.515625 L 20.453125 0 Z M 7.609375 0 "/></g></g></g><g fill="#000000" fill-opacity="1"><g transform="translate(109.237312, 118.06527)"><g><path d="M 7.609375 -60.515625 L 26.453125 -60.515625 C 35.035156 -60.515625 41.265625 -59.289062 45.140625 -56.84375 C 49.015625 -54.40625 50.953125 -50.523438 50.953125 -45.203125 C 50.953125 -41.585938 50.101562 -38.617188 48.40625 -36.296875 C 46.71875 -33.984375 44.460938 -32.59375 41.640625 -32.125 L 41.640625 -31.703125 C 45.484375 -30.847656 48.25 -29.25 49.9375 -26.90625 C 51.632812 -24.5625 52.484375 -21.441406 52.484375 -17.546875 C 52.484375 -12.023438 50.488281 -7.71875 46.5 -4.625 C 42.519531 -1.539062 37.109375 0 30.265625 0 L 7.609375 0 Z M 20.453125 -36.546875 L 27.90625 -36.546875 C 31.382812 -36.546875 33.898438 -37.082031 35.453125 -38.15625 C 37.015625 -39.238281 37.796875 -41.023438 37.796875 -43.515625 C 37.796875 -45.828125 36.945312 -47.484375 35.25 -48.484375 C 33.550781 -49.492188 30.867188 -50 27.203125 -50 L 20.453125 -50 Z M 20.453125 -26.375 L 20.453125 -10.59375 L 28.8125 -10.59375 C 32.34375 -10.59375 34.945312 -11.269531 36.625 -12.625 C 38.3125 -13.976562 39.15625 -16.046875 39.15625 -18.828125 C 39.15625 -23.859375 35.566406 -26.375 28.390625 -26.375 Z M 20.453125 -26.375 "/></g></g></g><g fill="#000000" fill-opacity="1"><g transform="translate(166.199342, 118.06527)"><g><path d="M 26.453125 -35.59375 L 39.078125 -60.515625 L 52.90625 -60.515625 L 32.828125 -23.5625 L 32.828125 0 L 20.078125 0 L 20.078125 -23.140625 L 0 -60.515625 L 13.90625 -60.515625 Z M 26.453125 -35.59375 "/></g></g></g><g fill="#000000" fill-opacity="1"><g transform="translate(33.274127, 207.093695)"><g><path d="M 44.671875 0 L 40.28125 -14.40625 L 18.21875 -14.40625 L 13.828125 0 L 0 0 L 21.359375 -60.765625 L 37.046875 -60.765625 L 58.5 0 Z M 37.21875 -25.171875 C 33.15625 -38.222656 30.867188 -45.601562 30.359375 -47.3125 C 29.847656 -49.03125 29.484375 -50.382812 29.265625 -51.375 C 28.359375 -47.84375 25.75 -39.109375 21.4375 -25.171875 Z M 37.21875 -25.171875 "/></g></g></g><g fill="#000000" fill-opacity="1"><g transform="translate(91.767851, 207.093695)"><g><path d="M 61.3125 0 L 45 0 L 18.671875 -45.78125 L 18.296875 -45.78125 C 18.816406 -37.695312 19.078125 -31.929688 19.078125 -28.484375 L 19.078125 0 L 7.609375 0 L 7.609375 -60.515625 L 23.796875 -60.515625 L 50.09375 -15.1875 L 50.375 -15.1875 C 49.96875 -23.050781 49.765625 -28.613281 49.765625 -31.875 L 49.765625 -60.515625 L 61.3125 -60.515625 Z M 61.3125 0 "/></g></g></g><g fill="#000000" fill-opacity="1"><g transform="translate(160.693575, 207.093695)"><g><path d="M 7.609375 0 L 7.609375 -60.515625 L 20.453125 -60.515625 L 20.453125 0 Z M 7.609375 0 "/></g></g></g><g fill="#000000" fill-opacity="1"><g transform="translate(188.760622, 207.093695)"><g><path d="M 33.234375 0 L 18.671875 -47.484375 L 18.296875 -47.484375 C 18.816406 -37.828125 19.078125 -31.382812 19.078125 -28.15625 L 19.078125 0 L 7.609375 0 L 7.609375 -60.515625 L 25.09375 -60.515625 L 39.40625 -14.234375 L 39.65625 -14.234375 L 54.84375 -60.515625 L 72.328125 -60.515625 L 72.328125 0 L 60.359375 0 L 60.359375 -28.640625 C 60.359375 -29.992188 60.378906 -31.550781 60.421875 -33.3125 C 60.460938 -35.082031 60.648438 -39.78125 60.984375 -47.40625 L 60.609375 -47.40625 L 45 0 Z M 33.234375 0 "/></g></g></g><g fill="#000000" fill-opacity="1"><g transform="translate(268.697902, 207.093695)"><g><path d="M 42.46875 0 L 7.609375 0 L 7.609375 -60.515625 L 42.46875 -60.515625 L 42.46875 -50 L 20.453125 -50 L 20.453125 -36.71875 L 40.9375 -36.71875 L 40.9375 -26.203125 L 20.453125 -26.203125 L 20.453125 -10.59375 L 42.46875 -10.59375 Z M 42.46875 0 "/></g></g></g></svg>